<?xml version="1.0" encoding="utf-8"?>
<!-- Generator: Adobe Illustrator 27.8.1, SVG Export Plug-In . SVG Version: 6.00 Build 0)  -->
<svg version="1.1" id="Layer_1" xmlns="http://www.w3.org/2000/svg" xmlns:xlink="http://www.w3.org/1999/xlink" x="0px" y="0px"
	 viewBox="0 0 341.89 255.48" style="enable-background:new 0 0 341.89 255.48;" xml:space="preserve">
<style type="text/css">
	.st0{fill:#FFFFFF;}
</style>
<g>
	<path class="st0" d="M0,169.5c3.34-0.21,6.64-0.55,9.67-2.17c4.9-2.62,7.42-6.94,8.86-12.09c1.71-6.13,1.98-12.41,2-18.71
		c0.05-12.93,0.04-25.87-0.01-38.8c-0.01-2.31-0.22-4.64-0.54-6.94c-0.74-5.24-3.94-8.27-9.44-9.02c-2.37-0.32-4.77-0.46-7.18-0.79
		c0.38,0,0.75,0,1.13,0c14.12,0,28.24,0.01,42.36-0.03c1.1,0,1.5,0.39,1.87,1.35c7.15,18.34,14.33,36.66,21.51,54.99
		c0.09,0.23,0.21,0.45,0.41,0.89c8.96-23.22,17.85-46.23,26.72-69.25c8.86-22.98,17.7-45.96,26.58-68.92
		c0.21,0.08,0.42,0.16,0.64,0.25c-10.35,26.84-20.69,53.68-31.11,80.71c13.01,0,25.83,0,38.65,0c0,0.06,0,0.11,0,0.17
		c-1.42,0.15-2.85,0.2-4.25,0.46c-4.98,0.94-7.66,3.55-8.38,8.65c-0.48,3.46-0.65,6.98-0.66,10.48
		c-0.05,16.91-0.04,33.82,0.05,50.72c0.02,3.23,0.21,6.52,0.83,9.69c1,5.12,4.49,7.82,9.74,8.13c0.87,0.05,1.74,0.13,2.6,0.39
		c-17.1,0-34.2,0-51.3,0c0-0.04-0.01-0.09-0.01-0.13c1.37-0.16,2.74-0.3,4.11-0.5c3.79-0.54,6.13-2.76,6.9-6.43
		c0.48-2.26,0.77-4.59,0.79-6.9c0.12-15.47,0.15-30.94,0.18-46.41c0.02-8.16,0-16.32,0-24.48c0-0.4-0.04-0.79-0.28-1.23
		c-0.68,1.74-1.37,3.49-2.05,5.23c-11.51,29.84-23.02,59.69-34.52,89.53c-9.87,25.6-19.72,51.21-29.58,76.81
		c-0.05,0.12-0.12,0.22-0.18,0.33c-0.08,0-0.17,0-0.25,0c0.04-0.51-0.04-1.06,0.14-1.51c10.22-26.55,20.45-53.1,30.72-79.64
		c0.37-0.95,0.31-1.72-0.06-2.64c-10.79-26.32-21.56-52.66-32.33-78.99c-1.01-2.48-2.04-4.95-3.06-7.42
		C21.04,85.63,21,85.94,21,86.25c0.02,17.79,0,35.59,0.11,53.38c0.04,5.8,0.78,11.54,2.75,17.05c2.21,6.19,6.15,10.62,12.76,12.2
		c1.53,0.36,3.13,0.45,4.69,0.66c-0.51,0.18-1,0.18-1.49,0.18c-8.58,0-17.16-0.01-25.74-0.01c-4.69,0-9.38,0.03-14.07,0.05
		C0,169.67,0,169.59,0,169.5z"/>
	<path class="st0" d="M124.9,135.72c0.5-13.17,6.73-23.61,19.23-29.42c14.66-6.82,29.06-5.62,42.11,4.3
		c7.28,5.53,11.18,13.23,12.16,22.39c1.84,17.25-9.53,32.98-28.1,36.71c-10.71,2.15-20.98,0.74-30.22-5.38
		C130.14,157.72,125.15,148.32,124.9,135.72z M150.39,138.29c0.35,5.27,0.71,12.23,1.33,19.16c0.3,3.37,1.31,6.63,3.4,9.41
		c3.19,4.25,9.07,4.54,12.67,0.63c1.86-2.02,2.77-4.52,3.41-7.12c1.32-5.37,1.53-10.85,1.59-16.35c0.1-9.17,0.39-18.34-0.83-27.46
		c-0.45-3.35-1.21-6.64-3-9.59c-1.11-1.82-2.54-3.27-4.63-3.92c-4.17-1.32-8.02,0.42-10.24,4.61c-1.94,3.66-2.59,7.68-2.88,11.71
		C150.81,125.1,150.7,130.84,150.39,138.29z"/>
	<path class="st0" d="M306.54,170.61c-12.27-0.19-21.69-3.48-29.18-11.29c-6.24-6.52-9.18-14.38-9.1-23.43
		c0.14-15.78,11.37-29.46,28.44-32.78c10.64-2.07,20.81-0.62,29.99,5.38c8.8,5.76,13.86,13.96,15,24.5
		c1.85,17.18-9.39,32.47-27.1,36.48C311.44,170.17,308.18,170.38,306.54,170.61z M293.7,138.32c0.35,5.26,0.71,12.18,1.32,19.06
		c0.29,3.33,1.29,6.54,3.29,9.32c1.25,1.74,2.86,2.99,5.04,3.32c4.09,0.6,7.07-0.83,9.12-4.43c1.95-3.41,2.81-7.18,3.01-11.02
		c0.38-7.08,0.6-14.18,0.65-21.27c0.05-6.08,0.01-12.17-1.1-18.19c-0.62-3.34-1.46-6.61-3.61-9.34c-3.26-4.15-9.32-4.24-12.64-0.14
		c-0.84,1.03-1.5,2.25-2.04,3.47c-1.46,3.28-2,6.8-2.23,10.34C294.15,125.17,294.01,130.91,293.7,138.32z"/>
	<path class="st0" d="M269.21,146.04c-1.4,3.61-3.35,6.9-5.67,9.96c-5.4,7.11-12.25,12.17-21.13,13.82
		c-11.73,2.17-22.39-0.18-31.05-8.84c-5.26-5.26-7.96-11.83-8.71-19.22c-0.8-7.86,0.4-15.34,4.4-22.22
		c5.38-9.24,13.67-14.42,23.97-16.43c8.53-1.66,16.99-1.08,25.18,1.99c4.39,1.64,8.07,4.22,10.24,8.56
		c2.68,5.36,1.46,12.12-2.77,15.5c-4.58,3.67-14.29,3.82-17.81-3.25c-0.34-0.68-0.62-1.39-0.81-2.12c-0.39-1.48-0.48-2.57,1.08-3.86
		c3.34-2.76,3.56-6.66,2.35-10.57c-1.15-3.69-3.75-5.98-7.62-6.56c-4.41-0.66-7.83,1.1-10.39,4.64c-2.59,3.58-3.7,7.74-4.38,12.01
		c-0.96,6.02-1.05,12.05,0.67,17.95c2.21,7.58,6.44,13.54,14.03,16.57c9.53,3.81,22.45,0.71,28.22-7.77
		C269.07,146.14,269.15,146.1,269.21,146.04z"/>
	<path class="st0" d="M100.57,213.02c2.45-5.41,4.81-10.62,7.18-15.83c0.08,0,0.16,0,0.24-0.01c1.31,7.28,2.62,14.55,3.92,21.77
		c-0.2,0.12-0.23,0.16-0.27,0.16c-2.89,0.35-2.87,0.34-3.31-2.5c-0.5-3.21-1.04-6.41-1.81-9.71c-1.96,4.33-3.93,8.67-5.97,13.18
		c-2.01-4.48-3.95-8.8-5.89-13.13c-0.08,0.01-0.16,0.02-0.25,0.03c-0.71,4.04-1.41,8.07-2.13,12.17c-1.06,0-2.09,0-3.19,0
		c1.4-7.33,2.79-14.6,4.18-21.86c0.09,0,0.17,0,0.26-0.01C95.84,202.46,98.16,207.65,100.57,213.02z"/>
	<path class="st0" d="M229.97,218.64c1.42-7.43,2.81-14.71,4.28-22.39c2.47,5.52,4.78,10.68,7.23,16.15
		c2.47-5.45,4.82-10.63,7.18-15.81c0.08,0.01,0.17,0.01,0.25,0.02c1.3,7.24,2.61,14.48,3.93,21.81c-1.06,0-2.06,0-3.17,0
		c-0.67-4.01-1.34-8.02-2-12.02c-0.09-0.01-0.18-0.03-0.28-0.04c-1.93,4.27-3.86,8.54-5.93,13.11c-2.02-4.51-3.94-8.77-6.01-13.38
		c-0.22,0.97-0.39,1.61-0.51,2.27c-0.53,2.99-1.12,5.97-1.52,8.97c-0.15,1.15-0.63,1.41-1.62,1.32
		C231.26,218.61,230.71,218.64,229.97,218.64z"/>
	<path class="st0" d="M201.93,197.97c1.01,0,1.93,0,3.01,0c0,0.64,0,1.25,0,1.87c0.01,3.3,0,6.59,0.03,9.89
		c0.01,0.88,0.08,1.77,0.21,2.64c0.35,2.44,2.07,3.85,4.56,3.8c2.42-0.05,4.22-1.62,4.32-4.07c0.13-3.25,0.06-6.5,0.07-9.76
		c0.01-1.43,0-2.86,0-4.38c1.03,0,1.98,0,2.93,0c0.05,0.07,0.14,0.14,0.14,0.2c0,4.85,0.21,9.72-0.09,14.56
		c-0.24,3.9-3.74,6.45-7.85,6.32c-3.91-0.12-7.16-3.03-7.29-6.87C201.81,207.49,201.93,202.8,201.93,197.97z"/>
	<path class="st0" d="M124.75,198.27c0.98,0,1.93,0,3.04,0c0,1.33,0,2.58,0,3.84c0.01,3.21-0.02,6.43,0.05,9.64
		c0.07,3.1,1.9,4.82,4.87,4.73c2.56-0.08,4.21-1.9,4.25-4.85c0.05-3.97,0.01-7.95,0-11.92c0-0.46,0-0.91,0-1.45
		c1.04,0,1.98,0,3.06,0c0,0.54,0,1.04,0,1.53c0.01,4.14,0.09,8.29,0,12.43c-0.09,4.12-3.43,7.2-7.62,7.23
		c-4.1,0.02-7.51-3.03-7.62-7.08C124.65,207.72,124.75,203.07,124.75,198.27z"/>
	<path class="st0" d="M189.27,198.08c0,0.96,0,1.83,0,2.83c-2.76,0-5.45,0-8.2,0c0,1.71,0,3.3,0,5.04c2.68,0,5.31,0,8.02,0
		c0,1.02,0,1.88,0,2.88c-2.64,0-5.24,0-7.94,0c0,2.39,0,4.65,0,7.05c2.71,0,5.43,0,8.22,0c0,1,0,1.87,0,2.85c-3.77,0-7.51,0-11.39,0
		c0-6.85,0-13.68,0-20.65C181.68,198.08,185.45,198.08,189.27,198.08z"/>
	<path class="st0" d="M152.52,213.23c0.96-0.21,1.93-0.43,3-0.66c0.1,0.46,0.17,0.82,0.26,1.18c0.42,1.65,1.6,2.61,3.26,2.67
		c1.61,0.06,3-0.93,3.45-2.45c0.46-1.55-0.05-3.08-1.53-3.92c-1.2-0.69-2.52-1.16-3.78-1.75c-1.77-0.84-3.31-1.93-3.73-4.01
		c-0.79-3.93,2.93-7.33,7.12-6.54c2.04,0.39,3.5,1.54,4.55,3.41c-0.79,0.48-1.54,0.93-2.42,1.46c-0.83-1.28-1.86-2.17-3.51-1.97
		c-1.35,0.17-2.48,0.98-2.67,2.12c-0.21,1.3,0.53,2.09,1.59,2.6c1.29,0.62,2.65,1.09,3.94,1.73c3.15,1.57,4.4,4.34,3.46,7.55
		c-0.92,3.16-3.82,4.92-7.53,4.56C155.06,218.93,152.84,216.53,152.52,213.23z"/>
</g>
</svg>
